<?xml version="1.0" encoding="UTF-8"?>
<svg xmlns="http://www.w3.org/2000/svg" viewBox="0 0 900 1400" width="900" height="1400" fill="none">
  <title>Decorative bow frame</title>
  <desc>Transparent decorative frame with hand-drawn bows and wavy border lines.</desc>

  <g stroke="#A30D2E" stroke-width="5.5" stroke-linecap="round" stroke-linejoin="round">

    <!-- top wave -->
    <path d="M210 125
             C235 100, 260 150, 285 125
             S335 100, 360 125
             S410 150, 435 125
             S485 100, 510 125
             S560 150, 585 125
             S635 100, 660 125
             S710 150, 735 125" />

    <!-- bottom wave -->
    <path d="M220 1268
             C245 1243, 270 1293, 295 1268
             S345 1243, 370 1268
             S420 1293, 445 1268
             S495 1243, 520 1268
             S570 1293, 595 1268
             S645 1243, 670 1268
             S720 1293, 745 1268" />

    <!-- left side wave -->
    <path d="M72 214
             C48 245, 96 275, 72 305
             S48 365, 72 395
             S96 455, 72 485
             S48 545, 72 575
             S96 635, 72 665
             S48 725, 72 755
             S96 815, 72 845
             S48 905, 72 935
             S96 995, 72 1025
             S48 1085, 72 1115
             S96 1175, 72 1205" />

    <!-- right side wave -->
    <path d="M828 214
             C852 245, 804 275, 828 305
             S852 365, 828 395
             S804 455, 828 485
             S852 545, 828 575
             S804 635, 828 665
             S852 725, 828 755
             S804 815, 828 845
             S852 905, 828 935
             S804 995, 828 1025
             S852 1085, 828 1115
             S804 1175, 828 1205" />

    <!-- top-left bow -->
    <g transform="translate(110 125)">
      <path d="M0 0 C-24 -28, -54 -38, -72 -15 C-46 -10, -26 -2, 0 0" />
      <path d="M0 0 C-16 -35, -11 -67, 17 -78 C18 -47, 10 -22, 0 0" />
      <path d="M0 0 C-28 15, -48 40, -43 68 C-16 48, -5 24, 0 0" />
      <path d="M0 0 C13 18, 32 40, 36 69 C12 50, 2 24, 0 0" />
      <path d="M0 0 C23 -16, 49 -34, 72 -30 C51 -8, 28 -2, 0 0" />
      <path d="M-2 4 C16 18, 32 32, 49 51" />
      <path d="M6 5 C26 2, 43 1, 61 2" />
    </g>

    <!-- top-right bow -->
    <g transform="translate(790 125) scale(-1 1)">
      <path d="M0 0 C-24 -28, -54 -38, -72 -15 C-46 -10, -26 -2, 0 0" />
      <path d="M0 0 C-16 -35, -11 -67, 17 -78 C18 -47, 10 -22, 0 0" />
      <path d="M0 0 C-28 15, -48 40, -43 68 C-16 48, -5 24, 0 0" />
      <path d="M0 0 C13 18, 32 40, 36 69 C12 50, 2 24, 0 0" />
      <path d="M0 0 C23 -16, 49 -34, 72 -30 C51 -8, 28 -2, 0 0" />
      <path d="M-2 4 C16 18, 32 32, 49 51" />
      <path d="M6 5 C26 2, 43 1, 61 2" />
    </g>

    <!-- bottom-left bow -->
    <g transform="translate(120 1255) rotate(14)">
      <path d="M0 0 C-24 -28, -54 -38, -72 -15 C-46 -10, -26 -2, 0 0" />
      <path d="M0 0 C-16 -35, -11 -67, 17 -78 C18 -47, 10 -22, 0 0" />
      <path d="M0 0 C-28 15, -48 40, -43 68 C-16 48, -5 24, 0 0" />
      <path d="M0 0 C13 18, 32 40, 36 69 C12 50, 2 24, 0 0" />
      <path d="M0 0 C23 -16, 49 -34, 72 -30 C51 -8, 28 -2, 0 0" />
      <path d="M-2 4 C16 18, 32 32, 49 51" />
      <path d="M6 5 C26 2, 43 1, 61 2" />
    </g>

    <!-- bottom-right bow -->
    <g transform="translate(785 1255) scale(-1 1) rotate(-14)">
      <path d="M0 0 C-24 -28, -54 -38, -72 -15 C-46 -10, -26 -2, 0 0" />
      <path d="M0 0 C-16 -35, -11 -67, 17 -78 C18 -47, 10 -22, 0 0" />
      <path d="M0 0 C-28 15, -48 40, -43 68 C-16 48, -5 24, 0 0" />
      <path d="M0 0 C13 18, 32 40, 36 69 C12 50, 2 24, 0 0" />
      <path d="M0 0 C23 -16, 49 -34, 72 -30 C51 -8, 28 -2, 0 0" />
      <path d="M-2 4 C16 18, 32 32, 49 51" />
      <path d="M6 5 C26 2, 43 1, 61 2" />
    </g>
  </g>
</svg>
