<?xml version="1.0" encoding="UTF-8"?>
<svg xmlns="http://www.w3.org/2000/svg" viewBox="0 0 180 180" fill="none">
  <g stroke="#E79AAA" stroke-width="4.5" stroke-linecap="round" stroke-linejoin="round">
    <path d="M44 70 L78 70 L88 103 Q66 118 44 103 Z"/>
    <path d="M98 70 L132 70 L142 103 Q120 118 98 103 Z"/>
    <path d="M78 70 Q89 59 100 70"/>
    <path d="M49 61 Q61 48 73 61"/>
    <path d="M103 61 Q115 48 127 61"/>
    <path d="M46 111 C52 132, 64 144, 81 145"/>
    <path d="M139 111 C145 132, 157 144, 171 140"/>
    <path d="M83 116 C95 127, 104 141, 105 157"/>
    <path d="M103 116 C92 127, 83 141, 82 157"/>
    <path d="M91 111
             C86 104, 77 100, 68 101
             C76 92, 89 91, 96 99
             C101 91, 114 92, 122 101
             C112 99, 103 104, 98 111
             Z"/>
    <path d="M96 99 L96 90"/>
    <path d="M96 111 L96 120"/>
  </g>
</svg>