<?xml version="1.0" encoding="UTF-8"?>
<svg xmlns="http://www.w3.org/2000/svg" viewBox="0 0 140 100" fill="none">
  <g stroke="#E79AAA" stroke-width="4.5" stroke-linecap="round" stroke-linejoin="round">
    <path d="M60 50 C42 30, 19 23, 6 39 C26 43, 41 48, 60 50"/>
    <path d="M60 50 C48 24, 52 1, 74 -7 C75 16, 69 34, 60 50"/>
    <path d="M60 50 C39 61, 24 80, 28 101 C48 86, 56 68, 60 50"/>
    <path d="M60 50 C70 64, 85 80, 88 101 C70 87, 63 69, 60 50"/>
    <path d="M60 50 C78 38, 98 24, 116 27 C100 45, 83 49, 60 50"/>
    <path d="M58 53 C71 63, 83 74, 97 88"/>
    <path d="M65 54 C81 52, 95 51, 109 52"/>
  </g>
</svg>