<?xml version="1.0" encoding="UTF-8"?>
<svg xmlns="http://www.w3.org/2000/svg" viewBox="0 0 180 180" fill="none">
  <g stroke="#E79AAA" stroke-width="4.2" stroke-linecap="round" stroke-linejoin="round">
    <path d="M48 76
             C49 53, 65 37, 90 37
             C115 37, 131 53, 132 76"/>
    <path d="M42 78 H138"/>
    <path d="M36 78 C46 70, 58 68, 70 73 C82 78, 98 78, 110 73 C122 68, 134 70, 144 78"/>
    <path d="M32 78 V125 C32 135, 39 142, 49 142 H131 C141 142, 148 135, 148 125 V78"/>
    <path d="M46 94 C51 102, 60 106, 70 106 C79 106, 87 102, 92 94"/>
    <path d="M92 94 C97 102, 105 106, 114 106 C124 106, 133 102, 138 94"/>
    <path d="M46 118 C55 112, 65 110, 76 113 C86 116, 95 116, 105 113 C116 110, 126 112, 134 118"/>
    <path d="M71 37 C69 28, 73 21, 80 20 C79 28, 78 34, 71 37"/>
    <path d="M108 37 C106 28, 110 21, 117 20 C116 28, 115 34, 108 37"/>
    <path d="M79 35 C90 25, 103 25, 113 35"/>
    <path d="M79 28 C88 20, 96 17, 104 18 C109 19, 114 22, 118 27"/>
    <path d="M77 63
             C77 57, 82 53, 88 53
             C95 53, 99 57, 99 63
             C99 71, 91 76, 88 80
             C85 76, 77 71, 77 63Z"/>
    <circle cx="118" cy="59" r="4"/>
    <circle cx="131" cy="66" r="4"/>
  </g>
</svg>