<?xml version="1.0" encoding="UTF-8"?>
<svg xmlns="http://www.w3.org/2000/svg" viewBox="0 0 200 170" fill="none">
  <g stroke="#E79AAA" stroke-width="4.5" stroke-linecap="round" stroke-linejoin="round">
    <path d="M101 138
             C81 122, 29 93, 29 56
             C29 30, 50 16, 73 16
             C89 16, 99 25, 107 36
             C114 25, 124 16, 140 16
             C163 16, 184 30, 184 56
             C184 93, 131 122, 111 138"/>
    <path d="M112 133 C120 116, 131 98, 143 84"/>
    <path d="M94 128 C86 108, 74 85, 61 67"/>
    <path d="M36 95 C56 89, 81 87, 103 90"/>
    <path d="M103 90 C121 92, 144 99, 161 113"/>
    <path d="M22 94 C34 103, 47 115, 57 129"/>
    <path d="M56 129 C47 128, 36 132, 27 140"/>
    <path d="M56 129 C59 140, 58 149, 54 157"/>
    <path d="M148 112 C160 121, 171 132, 178 145"/>
    <path d="M178 145 C167 142, 156 144, 145 151"/>
    <path d="M178 145 C181 153, 181 161, 178 167"/>
    <path d="M181 40
             C189 40, 194 45, 194 51
             C194 60, 184 65, 181 70
             C178 65, 168 60, 168 51
             C168 45, 173 40, 181 40Z"/>
    <path d="M188 48 L199 41"/>
  </g>
</svg>